Coordinates
version=1
nRows=20
nColumns=38
inDegrees=no

Units are S.I. units (second, meters, Newtons, ...)
If the header above contains a line with 'inDegrees', this indicates whether rotational values are in degrees (yes) or radians (no).

endheader
time	pelvis_tilt	pelvis_list	pelvis_rotation	pelvis_tx	pelvis_ty	pelvis_tz	hip_flexion_r	hip_adduction_r	hip_rotation_r	knee_angle_r	ankle_angle_r	subtalar_angle_r	mtp_angle_r	hip_flexion_l	hip_adduction_l	hip_rotation_l	knee_angle_l	ankle_angle_l	subtalar_angle_l	mtp_angle_l	lumbar_extension	lumbar_bending	lumbar_rotation	arm_flex_r	arm_add_r	arm_rot_r	elbow_flex_r	pro_sup_r	wrist_flex_r	wrist_dev_r	arm_flex_l	arm_add_l	arm_rot_l	elbow_flex_l	pro_sup_l	wrist_flex_l	wrist_dev_l
1.48	2.94848	1.34373	-1.31154	0.630738	0.797025	0.955622	-0.277345	0.07479	-0.171497	0.159777	-0.296618	0	0	0.214166	-0.281739	-0.351034	1.19801	-0.199793	0	0	-0.272382	0.0640477	-0.1273	-0.0930336	-0.0819369	-0.668245	0.598477	0.684101	0	0	-0.191888	-0.261201	0.0408651	0.822659	1.5078	0	0
1.49	2.9685	1.33828	-1.33487	0.63068	0.806311	0.955609	-0.300048	0.071752	-0.1706	0.150762	-0.295048	0	0	0.213602	-0.280337	-0.379055	1.15344	-0.205077	0	0	-0.280212	0.0591937	-0.124088	-0.0908202	-0.0807217	-0.669966	0.600241	0.689255	0	0	-0.197992	-0.263232	0.0367322	0.823718	1.50825	0	0
1.5	2.98526	1.33324	-1.35425	0.630517	0.815635	0.955415	-0.321333	0.069001	-0.170515	0.143645	-0.292358	0	0	0.211721	-0.27755	-0.40565	1.10399	-0.21242	0	0	-0.287659	0.054998	-0.121802	-0.0881976	-0.0791684	-0.672245	0.602427	0.691865	0	0	-0.204379	-0.264854	0.0319691	0.824987	1.50842	0	0
1.51	2.99816	1.329	-1.36914	0.630247	0.824928	0.955012	-0.341042	0.0668745	-0.170253	0.137506	-0.288912	0	0	0.209415	-0.273605	-0.43107	1.05036	-0.221629	0	0	-0.294224	0.0517003	-0.119955	-0.0856315	-0.0777591	-0.674044	0.60498	0.693524	0	0	-0.210336	-0.265991	0.0272082	0.825625	1.50863	0	0
1.52	3.00829	1.32556	-1.38105	0.629888	0.834122	0.954407	-0.358558	0.0649221	-0.169616	0.134002	-0.283948	0	0	0.206542	-0.268493	-0.456513	0.992792	-0.232213	0	0	-0.299996	0.0489392	-0.117947	-0.0833788	-0.0768454	-0.674536	0.607931	0.695362	0	0	-0.21546	-0.266829	0.0227054	0.825608	1.50922	0	0
1.53	3.01719	1.3222	-1.39213	0.629488	0.843184	0.953674	-0.374191	0.0623975	-0.168121	0.133827	-0.275167	0	0	0.201832	-0.261672	-0.482106	0.930583	-0.24879	0	0	-0.306514	0.046042	-0.115783	-0.0935034	-0.0967679	-0.595826	0.615019	0.608815	0	0	-0.220591	-0.267901	0.0184928	0.826945	1.50733	0	0
1.54	3.02317	1.32158	-1.39888	0.628928	0.852384	0.952622	-0.386734	0.0604006	-0.168026	0.133262	-0.267196	0	0	0.199025	-0.251718	-0.502066	0.864389	-0.257888	0	0	-0.30923	0.0438696	-0.115628	-0.080622	-0.0797071	-0.657249	0.614086	0.677618	0	0	-0.226068	-0.266216	0.00799288	0.826084	1.51647	0	0
1.55	3.02608	1.32394	-1.40091	0.628179	0.861705	0.95125	-0.396523	0.0594564	-0.169528	0.131555	-0.260184	0	0	0.198457	-0.238662	-0.514588	0.794029	-0.260929	0	0	-0.307945	0.0423186	-0.11469	-0.0804079	-0.0807254	-0.653382	0.615773	0.673734	0	0	-0.228823	-0.266754	0.00627742	0.822428	1.51665	0	0
1.56	3.02629	1.32869	-1.39868	0.627234	0.871034	0.949605	-0.402023	0.0588697	-0.174456	0.134638	-0.250491	0	0	0.199323	-0.222805	-0.518837	0.718907	-0.261465	0	0	-0.303968	0.0414635	-0.115122	-0.0795483	-0.0816713	-0.650801	0.6161	0.668	0	0	-0.231157	-0.266997	0.00486534	0.817674	1.51696	0	0
1.57	3.02294	1.33562	-1.39163	0.626115	0.880337	0.947689	-0.40367	0.0589014	-0.181316	0.14135	-0.239625	0	0	0.201193	-0.203884	-0.511791	0.637905	-0.261269	0	0	-0.297607	0.0414346	-0.116647	-0.0787698	-0.082926	-0.647663	0.61599	0.662608	0	0	-0.233241	-0.267051	0.00366819	0.81247	1.5172	0	0
1.58	3.01468	1.34441	-1.37849	0.624816	0.889573	0.945519	-0.401222	0.0595649	-0.189177	0.15138	-0.228469	0	0	0.203062	-0.181629	-0.489199	0.549549	-0.261866	0	0	-0.289207	0.0423632	-0.119265	-0.0779704	-0.0845212	-0.643596	0.615898	0.655524	0	0	-0.235118	-0.267111	0.00274253	0.807376	1.51708	0	0
1.59	3.00101	1.35391	-1.35954	0.6234	0.898771	0.943166	-0.399531	0.061788	-0.194283	0.156713	-0.223474	0	0	0.202492	-0.157694	-0.452545	0.455064	-0.263484	0	0	-0.28007	0.0442617	-0.122415	-0.0755656	-0.0836018	-0.648997	0.615965	0.659775	0	0	-0.237328	-0.266825	0.000817363	0.803237	1.51722	0	0
1.6	2.98395	1.36432	-1.33699	0.621846	0.908	0.940683	-0.396654	0.064266	-0.200669	0.163115	-0.213231	0	0	0.197684	-0.132091	-0.401114	0.353415	-0.267247	0	0	-0.26949	0.0463909	-0.125267	-0.0736263	-0.0837712	-0.652697	0.61551	0.661149	0	0	-0.238921	-0.266548	0.000294882	0.798444	1.51596	0	0
1.61	2.96456	1.37381	-1.31204	0.620204	0.917378	0.938279	-0.393203	0.0666418	-0.209489	0.173995	-0.201118	0	0	0.185867	-0.107742	-0.34124	0.246918	-0.277531	0	0	-0.25941	0.0487092	-0.1278	-0.0725887	-0.0845753	-0.65499	0.614929	0.660766	0	0	-0.240289	-0.266442	0.000615625	0.793727	1.51438	0	0
1.62	2.94379	1.38116	-1.28701	0.618565	0.926934	0.936035	-0.390235	0.0682274	-0.21898	0.188776	-0.189865	0	0	0.168504	-0.0883739	-0.286949	0.144413	-0.295293	0	0	-0.251338	0.0511394	-0.128954	-0.0724066	-0.0857781	-0.656298	0.615173	0.658565	0	0	-0.241962	-0.26598	0.000603034	0.789952	1.51133	0	0
1.63	2.92397	1.38629	-1.26395	0.617024	0.936699	0.933977	-0.389366	0.069428	-0.227782	0.203872	-0.179297	0	0	0.148597	-0.0742771	-0.241663	0.0513256	-0.325226	0	0	-0.245337	0.0531611	-0.127586	-0.0866048	-0.107984	-0.579981	0.620405	0.568847	0	0	-0.242901	-0.267936	0.00752698	0.787198	1.49759	0	0
1.64	2.90506	1.39087	-1.24326	0.615614	0.946578	0.931965	-0.386289	0.0688176	-0.238839	0.226485	-0.163265	0	0	0.137889	-0.0669323	-0.221637	0	-0.337551	0	0	-0.239789	0.0547533	-0.126269	-0.0800637	-0.0958959	-0.629622	0.619765	0.621755	0	0	-0.245379	-0.267685	0.00673151	0.784793	1.49469	0	0
1.65	2.89092	1.39402	-1.22822	0.614317	0.956527	0.930247	-0.386609	0.0679486	-0.24408	0.243479	-0.157702	0	0	0.137433	-0.0645035	-0.225098	0	-0.333923	0	0	-0.236333	0.0550982	-0.124354	-0.0810681	-0.0975637	-0.627909	0.620313	0.618061	0	0	-0.248039	-0.268178	0.00607208	0.783221	1.49145	0	0
1.66	2.88592	1.39672	-1.22309	0.613092	0.966563	0.928828	-0.385744	0.0642498	-0.250709	0.265929	-0.152274	0	0	0.137054	-0.0617443	-0.225351	0	-0.33217	0	0	-0.233979	0.0534687	-0.121556	-0.0821727	-0.0991011	-0.625776	0.619663	0.61317	0	0	-0.250146	-0.268907	0.00532273	0.781037	1.48875	0	0
1.67	2.89036	1.39868	-1.22801	0.611886	0.976676	0.927716	-0.385186	0.0582658	-0.257114	0.290706	-0.147885	0	0	0.1368	-0.0583062	-0.223218	0	-0.335291	0	0	-0.233153	0.0501283	-0.118306	-0.0835602	-0.101006	-0.6216	0.618417	0.607802	0	0	-0.252113	-0.270036	0.00472575	0.779018	1.48522	0	0
